<svg xmlns="http://www.w3.org/2000/svg" version="1.1" xmlns:xlink="http://www.w3.org/1999/xlink" xmlns:svgjs="http://svgjs.dev/svgjs" viewBox="0 0 600 600"><path d="M228.92668998678403 289.79055514510395C240.18323600729184 288.4816511330597 336.25654940247415 366.36123385604145 342.01570976217465 365.1832248228383C347.77487012187515 364.0052157896352 287.95809257467465 288.3507714130076 263.48165214498715 282.7225009458852C239.00521171529965 277.0942304787628 201.43978711406265 320.68061556990864 195.15706718404965 331.41360202010395C188.87434725403665 342.14658847029926 217.0156995896486 340.3141350604685 225.78533256490903 347.1204196470571C234.55496554016946 353.92670423364564 235.2094200893231 380.10471326684876 247.77486503561215 372.2513095396352C260.3403099819012 364.39790581242164 291.88480969707047 301.5706810809763 301.1780022426434 299.9999972837758C310.47119478821634 298.4293134865753 307.9842817429689 350.6544314878774 303.53402030904965 362.8272067564321C299.0837588751304 374.99998202498676 286.9109886928387 385.20942416365864 274.4764336391278 373.03664889510395C262.04187858541684 360.86387362654926 217.6701439662762 291.0994591571482 228.92668998678403 289.79055514510395C240.18323600729184 288.4816511330597 336.25654940247415 366.36123385604145 342.01570976217465 365.1832248228383 " fill="hsl(340, 45%, 50%)" transform="matrix(1,0,0,1,31.67242431640625,-30.369583129882812)"></path></svg>