<svg xmlns="http://www.w3.org/2000/svg" version="1.1" xmlns:xlink="http://www.w3.org/1999/xlink" xmlns:svgjs="http://svgjs.dev/svgjs" viewBox="0 0 800 400"><path d="M432.73541259765625,89.68609619140625C424.6636657714844,91.18086496988933,398.50522867838544,93.57249577840169,384.304931640625,98.65470886230469C370.10463460286456,103.73692194620769,347.23467508951825,115.24664052327473,347.53363037109375,120.17937469482422C347.83258565266925,125.1121088663737,375.1868540445964,126.75634638468425,386.0986633300781,128.25111389160156C397.0104726155599,129.7458813985189,407.7727966308594,126.75635019938152,413.0044860839844,129.14797973632812C418.2361755371094,131.53960927327475,419.58147684733075,138.41554005940756,417.4888000488281,142.60089111328125C415.3961232503255,146.78624216715494,405.829594930013,152.16740926106772,400.44842529296875,154.2600860595703C395.0672556559245,156.3527628580729,392.8250986735026,154.26009114583334,385.2017822265625,155.15695190429688C377.5784657796224,156.0538126627604,361.88341267903644,157.99700673421225,354.7085266113281,159.64125061035156C347.5336405436198,161.28549448649088,343.1988067626953,161.5844472249349,342.1524658203125,165.0224151611328C341.1061248779297,168.46038309733072,345.5904235839844,177.13004302978516,348.43048095703125,180.26905822753906C351.2705383300781,183.40807342529297,354.55902608235675,183.10912322998047,359.19281005859375,183.85650634765625C363.82659403483075,184.60388946533203,367.8624776204427,184.30492655436197,376.2331848144531,184.75335693359375C384.60389200846356,185.20178731282553,403.43797810872394,185.7997029622396,409.41705322265625,186.54708862304688C415.39612833658856,187.29447428385416,412.5560658772786,186.39761098225912,412.1076354980469,189.2376708984375C411.6592051188151,192.07773081461588,413.1539764404297,199.85052744547525,406.7264709472656,203.5874481201172C400.29896545410156,207.32436879475912,382.81017049153644,208.96861267089844,373.5426025390625,211.65919494628906C364.27503458658856,214.3497772216797,356.8011830647786,216.59192911783853,351.1210632324219,219.73094177246094C345.4409434000651,222.86995442708334,340.35874430338544,227.50373331705728,339.4618835449219,230.49327087402344C338.5650227864583,233.4828084309896,338.71448771158856,234.5291544596354,345.7398986816406,237.6681671142578C352.7653096516927,240.80717976888022,374.1405080159505,247.38415018717447,381.6143493652344,249.3273468017578C389.08819071451825,251.27054341634116,384.902826944987,247.982053120931,390.58294677734375,249.3273468017578C396.2630666097005,250.67264048258463,411.5097147623698,256.0538152058919,415.695068359375,257.39910888671875" fill="none" stroke-width="19" stroke="url(&quot;#SvgjsLinearGradient1002&quot;)" stroke-linecap="round" transform="matrix(1,0,0,1,14.09405517578125,26.4573974609375)"></path><defs><linearGradient id="SvgjsLinearGradient1002"><stop stop-color="hsl(185, 53%, 55%)" offset="0"></stop><stop stop-color="hsl(0, 73%, 55%)" offset="1"></stop></linearGradient></defs></svg>