<svg xmlns="http://www.w3.org/2000/svg" version="1.1" xmlns:xlink="http://www.w3.org/1999/xlink" xmlns:svgjs="http://svgjs.dev/svgjs" viewBox="0 0 800 400"><path d="M378.92376708984375,94.17040252685547C378.77429072062176,95.70254039764404,375.4110730489095,127.54111321767171,375.3363342285156,130.94171142578125C375.26159540812176,134.34230963389078,377.1674054463704,172.19731585184732,377.1300354003906,175.78475952148438C377.0926653544108,179.37220319112143,374.5515607198079,214.46188418070474,374.439453125,217.0403594970703C374.3273455301921,219.61883481343588,373.5799611409505,242.9745947519938,374.439453125,237.6681671142578C375.2989451090495,232.36173947652182,392.75037002563477,95.92675399780273,395.0672607421875,89.68609619140625C397.38415145874023,83.44543838500977,426.00895563761395,87.25710328420003,430.0448303222656,87.89237976074219C434.0807050069173,88.52765623728435,489.7234687805176,103.36322498321533,491.9282531738281,104.93273162841797C494.1330375671387,106.5022382736206,484.0433629353841,123.91629378000896,482.95965576171875,125.56053924560547C481.8759485880534,127.20478471120198,467.60089619954425,142.9372237523397,465.9192810058594,144.39462280273438C464.2376658121745,145.85202185312906,444.656197865804,159.4917786916097,442.60089111328125,160.53811645507812C440.5455843607585,161.58445421854654,418.3109016418457,169.02092933654785,416.5919189453125,169.50672912597656C414.8729362487793,169.99252891540527,401.98058191935223,172.08520380655924,401.3453063964844,172.1973114013672" fill="none" stroke-width="23" stroke="url(&quot;#SvgjsLinearGradient1007&quot;)" stroke-linecap="round" stroke-dasharray="0 5"></path><defs><linearGradient id="SvgjsLinearGradient1007"><stop stop-color="hsl(105, 69%, 40%)" offset="0"></stop><stop stop-color="hsl(105, 69%, 60%)" offset="1"></stop></linearGradient></defs></svg>